# xmcd
# 
# Track frame offsets:
#     182
#     17705
#     38367
#     55822
# 
# Disc length: 986
# 
# Revision: 1
# Processed by: cddbd v1.5.2PL0 Copyright (c) Steve Scherf et al.
# Submitted via: fre:ac v1.1beta1pre5
# 
DISCID=2303d804
DTITLE=Blessid Union of Souls - I Believe
DYEAR=1995
DGENRE=Rock
TTITLE0=I Believe (Radio Mix)
TTITLE1=Heaven
TTITLE2=I Believe (Original Version)
TTITLE3=I Believe (Blessid Q Mix)
EXTD=
EXTT0=
EXTT1=
EXTT2=
EXTT3=
PLAYORDER=
